<svg width="102" height="66" viewBox="0 0 102 66" fill="none" xmlns="http://www.w3.org/2000/svg">
<path id="Vector" d="M-0.00198364 34.5876C-0.00198364 37.343 2.45509 39.5975 5.45805 39.5975H17.0994C20.1024 39.5975 25.0165 39.5975 28.0195 39.5975H63.1411C66.1441 39.5975 66.6507 40.9685 64.2672 42.6444L35.3772 62.9531C32.9938 64.6291 33.5004 66 36.5033 66H52.1352C55.1381 66 59.5457 64.6291 61.9304 62.9531L100.212 36.0475C102.595 34.3715 102.597 31.6296 100.212 29.9536L61.9291 3.04692C59.5444 1.37094 55.1369 0 52.1339 0H36.5021C33.4992 0 32.9925 1.37094 35.376 3.04692L64.2672 23.3556C66.6507 25.0315 66.1441 26.4025 63.1411 26.4025H28.0207C25.0178 26.4025 20.1036 26.4025 17.1007 26.4025H5.45805C2.45509 26.4025 -0.00198364 28.657 -0.00198364 31.4124V34.5876Z" fill="white"/>
</svg>
